<svg width="256" height="70.287445" viewBox="0 0 256 70.287446" fill="none" xmlns="http://www.w3.org/2000/svg"><mask id="a" maskUnits="userSpaceOnUse" x="435.216" y="866.515" width="5233" height="1091" fill="#000"><path fill="#fff" d="M435.216 866.51501h5233v1091h-5233z"/><path d="M4718 1307.41v411.04h176.66v-411.04h161.64v-150.09h-161.64v-54.27c0-23.86 6.92-42.72 20.78-56.57 13.85-13.86 32.71-20.79 56.57-20.79 13.09 0 24.25 2.31 33.49 6.93 10 3.85 18.86 9.62 26.55 17.32l110.84-110.841c-21.55-22.322-46.95-39.641-76.2-51.956-28.48-13.086-61.96-19.628-100.45-19.628-50.8 0-94.68 10.776-131.62 32.328-36.95 20.783-65.81 49.648-86.6 86.595-20.01 36.172-30.02 76.972-30.02 122.382v48.5h-123.54v150.09z"/><path fill-rule="evenodd" clip-rule="evenodd" d="M695.999 1710.96c52.342 21.55 109.302 32.33 170.88 32.33 60.039 0 115.844-10.78 167.421-32.33 52.34-21.55 97.75-51.18 136.24-88.9 38.48-38.49 68.5-83.13 90.06-133.93 21.55-51.58 32.32-107 32.32-166.27 0-60.03-10.77-115.45-32.32-166.26-21.56-51.57-51.96-96.21-91.22-133.93-38.48-38.486-83.9-68.12-136.24-88.903-51.571-21.553-107.762-32.329-168.57-32.329-61.578 0-118.538 10.776-170.88 32.329-51.572 20.783-96.601 50.417-135.087 88.903-38.487 37.72-68.506 81.98-90.059 132.78-21.552 50.8-32.328 106.22-32.328 166.26 0 59.27 10.776 114.69 32.328 166.26 21.553 50.8 51.957 95.45 91.213 133.93 39.256 38.49 84.67 68.51 136.242 90.06zm295.576-165.1c-36.177 21.55-78.512 32.32-127.005 32.32-36.177 0-69.276-6.15-99.295-18.47-30.02-12.31-55.805-29.63-77.358-51.96-20.783-23.09-36.947-50.41-48.493-81.97-11.546-31.56-17.319-66.58-17.319-105.07 0-51.57 10.007-96.22 30.02-133.93 20.013-38.49 48.108-68.12 84.285-88.91 36.947-21.55 79.667-32.33 128.16-32.33 36.177 0 68.891 6.16 98.14 18.48 30.02 11.54 55.81 28.86 77.36 51.96 21.55 22.32 38.1 49.26 49.65 80.82 11.54 30.79 17.31 65.42 17.31 103.91 0 50.8-10 95.83-30.01 135.09-20.02 38.48-48.5 68.5-85.445 90.06z"/><path d="M3177.34 1396.93v319.82h166.87v-362.26c.02-37.26.03-71.61-17.93-103.04-18.47-32.33-43.87-58.11-76.2-77.36-31.56-20.01-68.12-30.02-109.69-30.02-43.1 0-81.98 9.24-116.61 27.71-14.89 7.78-28.36 17.05-40.41 27.8v-43.96h-176.66v561.13h176.66v-319.82c0-19.24 4.23-36.18 12.7-50.8 8.46-15.4 20.01-26.94 34.63-34.64 14.63-8.47 31.56-12.7 50.81-12.7 27.71 0 50.41 9.23 68.12 27.71 18.47 17.7 27.71 41.18 27.71 70.43z"/><path fill-rule="evenodd" clip-rule="evenodd" d="M2253.4 1694.7c47.72 24.63 101.99 36.95 162.8 36.95 46.95 0 90.06-8.08 129.31-24.25 39.26-16.16 72.74-40.41 100.45-72.74l-96.98-96.98c-16.94 19.24-36.57 33.86-58.89 43.87-22.32 9.24-47.34 13.86-75.05 13.86-30.02 0-56.19-6.16-78.51-18.48-21.55-13.08-38.49-31.17-50.8-54.26-3.88-8.02-7.1-16.55-9.68-25.6l402.24-.96c3.08-14.62 5-27.32 5.77-38.1 1.54-11.55 2.31-22.32 2.31-32.33 0-54.65-12.31-103.14-36.94-145.48-23.87-42.33-56.96-75.43-99.3-99.29-42.33-23.86-91.21-35.8-146.63-35.8-56.96 0-108.15 12.7-153.56 38.11-45.42 25.4-81.59 60.42-108.54 105.06-26.17 43.88-39.25 93.91-39.25 150.1s13.47 106.61 40.41 151.25c26.94 44.65 63.89 79.67 110.84 105.07zm22.72-318.9 245.27-.69c-2.38-10.71-5.5-20.41-9.36-29.1-9.24-21.55-23.09-37.71-41.57-48.49-17.7-11.55-39.64-17.32-65.81-17.32-27.71 0-51.95 6.54-72.74 19.63-20.01 12.32-35.79 30.02-47.34 53.11-3.33 7.14-6.15 14.76-8.45 22.86zM1737.33 1730.5c-37.71 0-72.35-7.32-103.91-21.94-16.61-7.7-31.62-16.89-45.03-27.57v274.65h-174.34v-797.82h176.65v38.73c12.82-10.48 27.06-19.55 42.72-27.19 31.56-15.39 66.2-23.09 103.91-23.09 53.11 0 100.07 12.7 140.86 38.1 41.57 25.4 73.9 60.04 96.99 103.92 23.86 43.87 35.79 93.9 35.79 150.09s-11.93 106.23-35.79 150.1c-23.09 43.88-55.42 78.51-96.99 103.91-40.79 25.41-87.75 38.11-140.86 38.11zM1705 1571.16c25.4 0 47.34-5.77 65.82-17.32 19.24-11.54 34.25-27.32 45.02-47.34 10.78-20.01 16.17-42.72 16.17-68.12 0-26.17-5.39-49.26-16.17-69.27-10.77-20.01-25.78-35.41-45.02-46.19-18.48-11.54-40.03-17.31-64.66-17.31-24.63 0-46.57 5.77-65.81 17.31-18.48 10.78-33.1 26.18-43.88 46.19-10.77 20.01-16.16 43.1-16.16 69.27 0 25.4 5 48.11 15.01 68.12 10.77 20.02 25.78 35.8 45.03 47.34 19.24 11.55 40.79 17.32 64.65 17.32z"/><path d="M5404.24 1731.07c-51.57 0-97.37-10.39-137.4-31.17-39.25-21.55-70.04-50.8-92.36-87.75-22.33-37.72-33.49-80.82-33.49-129.31v-325.6h176.66v323.29c0 19.24 3.08 35.79 9.23 49.65 6.93 13.85 16.94 24.63 30.02 32.32 13.09 7.7 28.87 11.55 47.34 11.55 26.17 0 46.95-8.08 62.35-24.25 15.39-16.93 23.09-40.02 23.09-69.27v-323.29h176.65v324.44c0 49.27-11.16 92.75-33.48 130.47-22.32 36.95-53.11 66.2-92.37 87.75-39.25 20.78-84.67 31.17-136.24 31.17z"/><path fill-rule="evenodd" clip-rule="evenodd" d="M4210.19 1730.61c-57.73 0-110.07-12.7-157.03-38.11-46.18-26.17-82.74-61.57-109.68-106.22-26.94-44.64-40.41-94.67-40.41-150.1 0-55.42 13.47-105.06 40.41-148.94 26.94-43.87 63.5-78.51 109.68-103.91 46.19-26.17 98.53-39.26 157.03-39.26s110.84 12.7 157.02 38.1c46.19 25.41 82.75 60.43 109.69 105.07 26.94 43.88 40.41 93.52 40.41 148.94 0 55.43-13.47 105.46-40.41 150.1-26.94 44.65-63.5 80.05-109.69 106.22-46.18 25.41-98.52 38.11-157.02 38.11zm0-160.49c25.4 0 47.72-5.39 66.97-16.17 19.24-11.54 33.86-27.32 43.87-47.34 10.78-20.78 16.16-44.25 16.16-70.43 0-26.17-5.38-48.87-16.16-68.12-10.78-20.01-25.79-35.4-45.03-46.18-18.47-11.55-40.41-17.32-65.81-17.32-24.63 0-46.57 5.77-65.81 17.32-19.25 10.78-34.26 26.17-45.03 46.18-10.78 20.02-16.17 43.11-16.17 69.28 0 25.4 5.39 48.49 16.17 69.27 10.77 20.02 25.78 35.8 45.03 47.34 19.24 10.78 41.18 16.17 65.81 16.17z"/><path d="M3562.32 1058.62v656.96h181.27v-656.96h247.34V900.438h-683.78v158.182z"/></mask><path d="M193.38267 40.972001v18.559895h7.97682V40.972001h7.29861v-6.777089h-7.29861v-2.45048c0-1.077362.31246-1.928958.93829-2.554334.62537-.625827 1.47697-.938741 2.55433-.938741.59106 0 1.09497.104304 1.51219.312914.45154.173841.8516.434376 1.19882.782058l5.00482-5.004858c-.97305-1.007917-2.11996-1.78993-3.4407-2.345995-1.28597-.590879-2.79771-.886273-4.53567-.886273-2.29379 0-4.27513.486574-5.9431 1.459722-1.66842.938425-2.97155 2.241781-3.91029 3.910067-.90352 1.633293-1.35551 3.475555-1.35551 5.525975v2.189945h-5.57826v6.777089z" fill="#0d1a2b" style="stroke-width:.0451535"/><path fill-rule="evenodd" clip-rule="evenodd" d="M11.775264 59.193696c2.363424.973058 4.935368 1.459808 7.71583 1.459808 2.71097 0 5.230761-.48675 7.559644-1.459808 2.363334-.973058 4.413754-2.310956 6.151712-4.01415 1.737507-1.737954 3.093014-3.753611 4.066524-6.047404.973058-2.329017 1.459361-4.831426 1.459361-7.507674 0-2.710564-.486303-5.212971-1.459361-7.50722-.97351-2.328565-2.346176-4.344218-4.118902-6.047408-1.737507-1.737777-3.788379-3.075856-6.151713-4.014281-2.32861-.973193-4.865831-1.459767-7.611525-1.459767-2.780461 0-5.352405.486574-7.715829 1.459767-2.3286558.938425-4.3618726 2.276504-6.09965 4.014281-1.7378228 1.70319-3.0932856 3.701684-4.0664788 5.995481C.53172803 36.359119.04515393 38.861526.04515393 41.572542c0 2.676248.4865741 5.178657 1.45972227 7.507218.9731932 2.293798 2.3460401 4.309906 4.1185859 6.047412 1.7725457 1.737954 3.8231466 3.093461 6.1518019 4.066524zm13.34629-7.454843c-1.633518.973058-3.545091 1.459362-5.73472 1.459362-1.633517 0-3.128053-.277694-4.483516-.833986-1.355508-.555839-2.51979-1.337902-3.492984-2.34618-.938425-1.042589-1.668286-2.276182-2.1896283-3.701227-.5213423-1.425046-.7820133-3.006322-.7820133-4.74428 0-2.328567.451851-4.34467 1.3555079-6.047408.9036567-1.737958 2.1722437-3.075856 3.8057627-4.014598 1.668285-.973057 3.597243-1.459812 5.786871-1.459812 1.633519 0 3.11067.278146 4.431364.834436 1.355509.521072 2.520017 1.30313 3.493075 2.346177.973058 1.007825 1.720348 2.22426 2.241871 3.649305.521072 1.390276.781607 2.953942.781607 4.6919 0 2.293797-.451535 4.327057-1.355057 6.099788-.903972 1.737506-2.189944 3.093015-3.85814 4.066523z" fill="#0d1a2b" style="stroke-width:.0451535"/><path d="M123.81648 45.014141V59.45513h7.53477V43.097827c.00091-1.682419.001-3.233442-.8096-4.652616-.83398-1.459813-1.98089-2.62387-3.4407-3.493075-1.42504-.903522-3.07586-1.355508-4.95289-1.355508-1.94611 0-3.70168.417219-5.26534 1.251203-.67234.351295-1.28055.769867-1.82466 1.255267v-1.984947h-7.97681V59.45513h7.97681V45.014141c0-.868753.191-1.633654.57346-2.293798.38199-.695363.90351-1.216435 1.56366-1.564117.66059-.382449 1.42505-.573449 2.29425-.573449 1.2512 0 2.27619.416767 3.07585 1.251203.83399.799217 1.2512 1.859421 1.2512 3.180161z" fill="#0d1a2b" style="stroke-width:.0451535"/><path fill-rule="evenodd" clip-rule="evenodd" d="M82.097365 58.4595c2.154724 1.112131 4.605205 1.668422 7.350989 1.668422 2.119956 0 4.066524-.36484 5.838799-1.094973 1.772725-.72968 3.284465-1.824652 4.535668-3.284465l-4.378986-4.378986c-.764901.868753-1.651263 1.528893-2.65909 1.980884-1.007825.417214-2.137566.625823-3.388769.625823-1.355509 0-2.537175-.278146-3.545002-.834437-.973057-.590608-1.737958-1.407435-2.293797-2.450024-.175195-.362131-.32059-.747294-.437085-1.15593l18.162548-.04335c.13907-.660145.22577-1.233599.26054-1.720349.0695-.521523.1043-1.007826.1043-1.459812 0-2.467642-.55584-4.657135-1.667976-6.568934-1.077814-1.911347-2.571944-3.405927-4.483743-4.48329-1.911347-1.077362-4.11845-1.616495-6.620857-1.616495-2.571943 0-4.88335.573449-6.933771 1.7208-2.050871 1.146899-3.684074 2.728174-4.90096 4.743826-1.181667 1.981335-1.772275 4.240365-1.772275 6.777542 0 2.537175.608218 4.81381 1.824653 6.829466 1.216435 2.016104 2.884857 3.597379 5.004814 4.744278zm1.025887-14.399452 11.074798-.03116c-.107465-.483594-.248344-.921583-.422637-1.313966-.417218-.973058-1.042594-1.702739-1.877031-2.189494-.799216-.521522-1.789884-.782059-2.971551-.782059-1.251203 0-2.345724.295304-3.284465.886364-.903522.556291-1.616044 1.355508-2.137567 2.398102-.150361.322395-.277694.666465-.381547 1.032209zM58.795 60.075991c-1.702739 0-3.266856-.330519-4.6919-.990668-.75-.347677-1.427754-.762638-2.033262-1.244877v12.401403h-7.872061V34.217488h7.976366v1.748795c.578868-.473208 1.221853-.88275 1.928957-1.227723 1.425044-.694913 2.989161-1.042594 4.6919-1.042594 2.398102 0 4.51851.573449 6.360321 1.720348 1.877032 1.146898 3.336843 2.711016 4.379438 4.692351 1.077363 1.980884 1.616043 4.239914 1.616043 6.777086 0 2.537175-.53868 4.796657-1.616043 6.77754-1.042595 1.981336-2.502406 3.545001-4.379438 4.6919-1.841811 1.14735-3.962219 1.7208-6.360321 1.7208zm-1.459813-7.194754c1.146899 0 2.137566-.260535 2.972003-.782058.868754-.521072 1.546507-1.233594 2.032811-2.137567.486754-.903522.730132-1.928957.730132-3.075856 0-1.181667-.243378-2.224264-.730132-3.127785-.486304-.903521-1.164057-1.598885-2.032811-2.08564-.834437-.521072-1.807494-.781607-2.919624-.781607-1.112131 0-2.102799.260535-2.971553.781607-.834436.486755-1.49458 1.182119-1.981335 2.08564-.486303.903521-.72968 1.946118-.72968 3.127785 0 1.146899.225767 2.172334.677754 3.075852.486303.903973 1.164057 1.616499 2.033261 2.137571.868754.521518 1.841812.782054 2.919174.782058z" fill="#0d1a2b" style="stroke-width:.0451535"/><path d="M224.36881 60.101732c-2.32857 0-4.3966-.469149-6.20409-1.407434-1.77228-.973063-3.16255-2.293802-4.17038-3.962219-1.00828-1.703195-1.51219-3.64931-1.51219-5.838799V34.191299h7.97681v14.597672c0 .868754.13908 1.616044.41677 2.241872.31292.625375.7649 1.11213 1.35551 1.459361.59106.347681 1.30358.521522 2.13757.521522 1.18167 0 2.11995-.36484 2.81532-1.094972.69491-.764449 1.04259-1.807043 1.04259-3.127783V34.191299h7.97637v14.649599c0 2.224713-.50392 4.187986-1.51174 5.891181-1.00783 1.668417-2.3981 2.989156-4.17083 3.962219-1.77227.938285-3.82315 1.407434-6.15171 1.407434z" fill="#0d1a2b" style="stroke-width:.0451535"/><path fill-rule="evenodd" clip-rule="evenodd" d="M170.45328 60.080963c-2.60672 0-4.97005-.573455-7.09046-1.720806-2.08518-1.181666-3.736-2.780095-4.95244-4.796199-1.21643-2.015656-1.82464-4.274681-1.82464-6.777539 0-2.502409.60821-4.743829 1.82464-6.725165 1.21644-1.980883 2.86726-3.545 4.95244-4.6919 2.08564-1.181666 4.44897-1.772726 7.09046-1.772726 2.64147 0 5.00481.57345 7.08999 1.720348 2.08565 1.147351 3.73646 2.728626 4.95289 4.744278 1.21644 1.981336 1.82466 4.222756 1.82466 6.72516 0 2.502863-.60822 4.761888-1.82466 6.77754-1.21643 2.016103-2.86724 3.614537-4.95289 4.796203-2.08518 1.147351-4.44852 1.720801-7.08999 1.720806zm0-7.24669c1.14689 0 2.15472-.243377 3.02393-.730132.86874-.521072 1.52889-1.233589 1.98088-2.137562.48675-.938294.72968-1.998042.72968-3.180165 0-1.181667-.24293-2.206649-.72968-3.075854-.48676-.903522-1.16451-1.598434-2.03326-2.085189-.83399-.521522-1.82466-.782059-2.97155-.782059-1.11214 0-2.1028.260537-2.97155.782059-.86921.486755-1.54696 1.181667-2.03327 2.085189-.48676.903972-.73013 1.946565-.73013 3.128236 0 1.146899.24337 2.189489.73013 3.127783.48631.903973 1.16406 1.61649 2.03327 2.137562.86875.486755 1.85941.730132 2.97155.730132z" fill="#0d1a2b" style="stroke-width:.0451535"/><path d="M141.19968 29.738262v29.664039h8.18497V29.738262h11.16827v-7.14247h-30.87505v7.14247z" fill="#0d1a2b" style="stroke-width:.0451535"/><path d="M4718 1307.41v411.04h176.66v-411.04h161.64v-150.09h-161.64v-54.27c0-23.86 6.92-42.72 20.78-56.57 13.85-13.86 32.71-20.79 56.57-20.79 13.09 0 24.25 2.31 33.49 6.93 10 3.85 18.86 9.62 26.55 17.32l110.84-110.841c-21.55-22.322-46.95-39.641-76.2-51.956-28.48-13.086-61.96-19.628-100.45-19.628-50.8 0-94.68 10.776-131.62 32.328-36.95 20.783-65.81 49.648-86.6 86.595-20.01 36.172-30.02 76.972-30.02 122.382v48.5h-123.54v150.09z" stroke="#fff" stroke-width="2" mask="url(#a)" transform="matrix(.04515 0 0 .04515 -19.651524 -18.062133)"/><path clip-rule="evenodd" d="M695.999 1710.96c52.342 21.55 109.302 32.33 170.88 32.33 60.039 0 115.844-10.78 167.421-32.33 52.34-21.55 97.75-51.18 136.24-88.9 38.48-38.49 68.5-83.13 90.06-133.93 21.55-51.58 32.32-107 32.32-166.27 0-60.03-10.77-115.45-32.32-166.26-21.56-51.57-51.96-96.21-91.22-133.93-38.48-38.486-83.9-68.12-136.24-88.903-51.571-21.553-107.762-32.329-168.57-32.329-61.578 0-118.538 10.776-170.88 32.329-51.572 20.783-96.601 50.417-135.087 88.903-38.487 37.72-68.506 81.98-90.059 132.78-21.552 50.8-32.328 106.22-32.328 166.26 0 59.27 10.776 114.69 32.328 166.26 21.553 50.8 51.957 95.45 91.213 133.93 39.256 38.49 84.67 68.51 136.242 90.06zm295.576-165.1c-36.177 21.55-78.512 32.32-127.005 32.32-36.177 0-69.276-6.15-99.295-18.47-30.02-12.31-55.805-29.63-77.358-51.96-20.783-23.09-36.947-50.41-48.493-81.97-11.546-31.56-17.319-66.58-17.319-105.07 0-51.57 10.007-96.22 30.02-133.93 20.013-38.49 48.108-68.12 84.285-88.91 36.947-21.55 79.667-32.33 128.16-32.33 36.177 0 68.891 6.16 98.14 18.48 30.02 11.54 55.81 28.86 77.36 51.96 21.55 22.32 38.1 49.26 49.65 80.82 11.54 30.79 17.31 65.42 17.31 103.91 0 50.8-10 95.83-30.01 135.09-20.02 38.48-48.5 68.5-85.445 90.06z" stroke="#fff" stroke-width="2" mask="url(#a)" transform="matrix(.04515 0 0 .04515 -19.651524 -18.062133)"/><path d="M3177.34 1396.93v319.82h166.87v-362.26c.02-37.26.03-71.61-17.93-103.04-18.47-32.33-43.87-58.11-76.2-77.36-31.56-20.01-68.12-30.02-109.69-30.02-43.1 0-81.98 9.24-116.61 27.71-14.89 7.78-28.36 17.05-40.41 27.8v-43.96h-176.66v561.13h176.66v-319.82c0-19.24 4.23-36.18 12.7-50.8 8.46-15.4 20.01-26.94 34.63-34.64 14.63-8.47 31.56-12.7 50.81-12.7 27.71 0 50.41 9.23 68.12 27.71 18.47 17.7 27.71 41.18 27.71 70.43z" stroke="#fff" stroke-width="2" mask="url(#a)" transform="matrix(.04515 0 0 .04515 -19.651524 -18.062133)"/><path clip-rule="evenodd" d="M2253.4 1694.7c47.72 24.63 101.99 36.95 162.8 36.95 46.95 0 90.06-8.08 129.31-24.25 39.26-16.16 72.74-40.41 100.45-72.74l-96.98-96.98c-16.94 19.24-36.57 33.86-58.89 43.87-22.32 9.24-47.34 13.86-75.05 13.86-30.02 0-56.19-6.16-78.51-18.48-21.55-13.08-38.49-31.17-50.8-54.26-3.88-8.02-7.1-16.55-9.68-25.6l402.24-.96c3.08-14.62 5-27.32 5.77-38.1 1.54-11.55 2.31-22.32 2.31-32.33 0-54.65-12.31-103.14-36.94-145.48-23.87-42.33-56.96-75.43-99.3-99.29-42.33-23.86-91.21-35.8-146.63-35.8-56.96 0-108.15 12.7-153.56 38.11-45.42 25.4-81.59 60.42-108.54 105.06-26.17 43.88-39.25 93.91-39.25 150.1s13.47 106.61 40.41 151.25c26.94 44.65 63.89 79.67 110.84 105.07zm22.72-318.9 245.27-.69c-2.38-10.71-5.5-20.41-9.36-29.1-9.24-21.55-23.09-37.71-41.57-48.49-17.7-11.55-39.64-17.32-65.81-17.32-27.71 0-51.95 6.54-72.74 19.63-20.01 12.32-35.79 30.02-47.34 53.11-3.33 7.14-6.15 14.76-8.45 22.86zM1737.33 1730.5c-37.71 0-72.35-7.32-103.91-21.94-16.61-7.7-31.62-16.89-45.03-27.57v274.65h-174.34v-797.82h176.65v38.73c12.82-10.48 27.06-19.55 42.72-27.19 31.56-15.39 66.2-23.09 103.91-23.09 53.11 0 100.07 12.7 140.86 38.1 41.57 25.4 73.9 60.04 96.99 103.92 23.86 43.87 35.79 93.9 35.79 150.09s-11.93 106.23-35.79 150.1c-23.09 43.88-55.42 78.51-96.99 103.91-40.79 25.41-87.75 38.11-140.86 38.11zM1705 1571.16c25.4 0 47.34-5.77 65.82-17.32 19.24-11.54 34.25-27.32 45.02-47.34 10.78-20.01 16.17-42.72 16.17-68.12 0-26.17-5.39-49.26-16.17-69.27-10.77-20.01-25.78-35.41-45.02-46.19-18.48-11.54-40.03-17.31-64.66-17.31-24.63 0-46.57 5.77-65.81 17.31-18.48 10.78-33.1 26.18-43.88 46.19-10.77 20.01-16.16 43.1-16.16 69.27 0 25.4 5 48.11 15.01 68.12 10.77 20.02 25.78 35.8 45.03 47.34 19.24 11.55 40.79 17.32 64.65 17.32z" stroke="#fff" stroke-width="2" mask="url(#a)" transform="matrix(.04515 0 0 .04515 -19.651524 -18.062133)"/><path d="M5404.24 1731.07c-51.57 0-97.37-10.39-137.4-31.17-39.25-21.55-70.04-50.8-92.36-87.75-22.33-37.72-33.49-80.82-33.49-129.31v-325.6h176.66v323.29c0 19.24 3.08 35.79 9.23 49.65 6.93 13.85 16.94 24.63 30.02 32.32 13.09 7.7 28.87 11.55 47.34 11.55 26.17 0 46.95-8.08 62.35-24.25 15.39-16.93 23.09-40.02 23.09-69.27v-323.29h176.65v324.44c0 49.27-11.16 92.75-33.48 130.47-22.32 36.95-53.11 66.2-92.37 87.75-39.25 20.78-84.67 31.17-136.24 31.17z" stroke="#fff" stroke-width="2" mask="url(#a)" transform="matrix(.04515 0 0 .04515 -19.651524 -18.062133)"/><path clip-rule="evenodd" d="M4210.19 1730.61c-57.73 0-110.07-12.7-157.03-38.11-46.18-26.17-82.74-61.57-109.68-106.22-26.94-44.64-40.41-94.67-40.41-150.1 0-55.42 13.47-105.06 40.41-148.94 26.94-43.87 63.5-78.51 109.68-103.91 46.19-26.17 98.53-39.26 157.03-39.26s110.84 12.7 157.02 38.1c46.19 25.41 82.75 60.43 109.69 105.07 26.94 43.88 40.41 93.52 40.41 148.94 0 55.43-13.47 105.46-40.41 150.1-26.94 44.65-63.5 80.05-109.69 106.22-46.18 25.41-98.52 38.11-157.02 38.11zm0-160.49c25.4 0 47.72-5.39 66.97-16.17 19.24-11.54 33.86-27.32 43.87-47.34 10.78-20.78 16.16-44.25 16.16-70.43 0-26.17-5.38-48.87-16.16-68.12-10.78-20.01-25.79-35.4-45.03-46.18-18.47-11.55-40.41-17.32-65.81-17.32-24.63 0-46.57 5.77-65.81 17.32-19.25 10.78-34.26 26.17-45.03 46.18-10.78 20.02-16.17 43.11-16.17 69.28 0 25.4 5.39 48.49 16.17 69.27 10.77 20.02 25.78 35.8 45.03 47.34 19.24 10.78 41.18 16.17 65.81 16.17z" stroke="#fff" stroke-width="2" mask="url(#a)" transform="matrix(.04515 0 0 .04515 -19.651524 -18.062133)"/><path d="M3562.32 1058.62v656.96h181.27v-656.96h247.34V900.438h-683.78v158.182z" stroke="#fff" stroke-width="2" mask="url(#a)" transform="matrix(.04515 0 0 .04515 -19.651524 -18.062133)"/><path fill-rule="evenodd" clip-rule="evenodd" d="M243.27052.25727333c-.62403-.34303111-1.38035-.34303111-2.00437 0L230.99463 5.9029053c-.009.0047-.0172.00948-.0257.014269l-1.35239.7433164c-.6651.3656079-1.07871 1.0644486-1.07871 1.823524V21.182532c0 .759076.41361 1.457917 1.07871 1.823569l10.36906 5.699049c.0131.0077.0266.01445.0402.02167l1.24037.681818c.62402.343166 1.38034.343166 2.00437 0l1.24352-.683625c.0122-.0063.0244-.01309.037-.01987l10.36859-5.699049c.66558-.365645 1.07873-1.064486 1.07873-1.823562V8.4840146c0-.7590754-.41315-1.4579161-1.07872-1.823524l-1.34738-.7407882c-.01-.00564-.0203-.011243-.0302-.016797zm.66013 14.57563867 9.61138-5.2829137c.01-.00542.0199-.010927.0293-.016436l.11469-.06308c.32014-.1759181.71162.055629.71162.4208306v9.8839651c0 .3652-.39148.596703-.71162.42083l-.0885-.04872c-.0181-.01075-.0366-.02127-.0555-.03156zm-12.96086-5.2967307c.008.00465.0163.00926.0248.013817l9.61137 5.2829137-9.61137 5.282915c-.0181.0099-.0361.01996-.0533.03025l-.0912.05003c-.32014.175873-.71162-.05563-.71162-.42083V9.8913136c0-.3652015.39148-.5967487.71162-.4208306zm21.81547-2.2223647-9.00542-4.9497715c-.31561-.1736152-.70123.049624-.71116.406517V13.479843l9.71658-5.3405752c.31291-.1852197.31291-.640096 0-.8254512zm-21.0316.8267153 9.71433 5.3393111V2.7705616c-.0104-.3568933-.39555-.5801322-.71163-.406517l-9.00315 4.9485072c-.31562.1849487-.31562.6432115.00045.8279801zm.0117 14.2196481c-.3233-.177633-.33143-.634542-.0253-.826759l9.72787-5.346672v10.709278c-.01.349758-.3802.571011-.69221.416586zm11.30328 4.521537V16.186749l9.72877 5.347349c.30523.192579.29665.64863-.0262.826082l-9.00903 4.951533c-.31245.156231-.68362-.06547-.69355-.415683v-.0143z" fill="#0d1a2b" style="stroke-width:.0451535"/><path d="M242.03646 1.65947c.14404-.079155.31879-.079155.46283 0l10.27152 5.6456319c.33187.1824202.33187.6592411 0 .8416161l-10.27152 5.645632c-.14404.0792-.31879.0792-.46283 0l-10.27151-5.645632c-.33188-.182375-.33188-.6591959 0-.8416161z" fill="#e7c200" style="stroke-width:.0451535"/><path d="M230.13852 9.8907718c0-.3652015.39148-.5967035.71162-.4208307l10.3686 5.6991839c.15352.08439.24925.245635.24925.42083V26.88122c0 .36502-.39149.596658-.71163.421011l-10.36904-5.699365c-.15352-.08439-.2488-.24568-.2488-.42083z" fill="#ffda18" style="stroke-width:.0451535"/><path d="M253.68562 9.4699411c.32014-.1758728.71162.05563.71162.4208307V21.182036c0 .17515-.0953.336439-.2488.42083l-10.36905 5.699365c-.32013.175647-.71162-.05599-.71162-.421011V15.589955c0-.175195.0957-.336438.24925-.42083z" fill="#fff" style="stroke-width:.0451535"/><path d="M234.49312 18.749842c-.00045.0053-.0009.01048-.001.01571l-2.43016-1.278702c0-.0053.00045-.01057.0009-.0158.0565-.756321.64614-1.083187 1.31758-.730041.67099.353145 1.16947 1.252512 1.11303 2.008833zM238.31808 20.958345c-.00045.0052-.0009.01048-.001.01571l-2.43061-1.278747c.00045-.0052.0009-.01052.001-.01576.056-.756321.64615-1.083187 1.31714-.730042.67142.353101 1.16947 1.252513 1.11348 2.008834z" fill="#0d1a2b" style="stroke-width:.0451535"/></svg>